Coordinates
version=1
nRows=13
nColumns=36
inDegrees=yes

Units are S.I. units (second, meters, Newtons, ...)
If the header above contains a line with 'inDegrees', this indicates whether rotational values are in degrees (yes) or radians (no).

endheader
time	pelvis_tilt	pelvis_list	pelvis_rotation	pelvis_tx	pelvis_ty	pelvis_tz	hip_flexion_r	hip_adduction_r	hip_rotation_r	knee_angle_r	knee_angle_r_beta	ankle_angle_r	subtalar_angle_r	mtp_angle_r	hip_flexion_l	hip_adduction_l	hip_rotation_l	knee_angle_l	knee_angle_l_beta	ankle_angle_l	subtalar_angle_l	mtp_angle_l	lumbar_extension	lumbar_bending	lumbar_rotation	arm_flex_r	arm_add_r	arm_rot_r	elbow_flex_r	pro_sup_r	arm_flex_l	arm_add_l	arm_rot_l	elbow_flex_l	pro_sup_l
      0.00000000	     -0.35842337	     -0.78698073	      1.06432924	      0.09454178	      1.13508054	      0.09963431	      5.09867715	      0.47023761	     -3.63178181	      6.66120990	      0.11626004	     11.74938365	      6.85766243	     -6.19834354	      4.19303502	     -1.84397749	     -5.26580120	      4.99421036	      0.08716541	      9.89367422	      4.33272845	     -6.19834354	     -0.25774332	      3.57792966	     -3.22877246	      3.22733893	    -12.04462752	     31.46725420	     27.63708889	     72.40944688	      0.43894621	     -9.26230565	     29.01306910	     26.57689435	     64.14466233
      0.01666670	     -1.19761117	      0.15337205	      0.56137209	      0.09585300	      1.13845438	      0.10146377	      5.44266493	     -0.35316957	     -4.60761221	      5.48949933	      0.09580984	     12.74819817	      7.67818703	     -6.23472426	      4.86299691	     -0.44800734	     -6.55299508	      4.79878915	      0.08375467	      9.31839651	      5.50907738	     -6.23472426	      1.68676283	      2.68140667	     -2.11216170	      2.75950438	    -11.88937424	     32.63432750	     27.03344397	     73.23510382	      0.62926785	     -9.47935122	     29.76236805	     25.75919436	     64.55854751
      0.03333330	     -1.81030818	      1.16314251	     -0.07920982	      0.09794472	      1.13594330	      0.10248571	      5.37077179	     -1.21677424	     -5.48898516	      4.44197040	      0.07752701	     12.84879851	      8.52355406	     -6.30892343	      5.31729052	      0.47544557	     -7.50983194	      4.88422662	      0.08524584	     10.05190902	      7.42026263	     -6.30892343	      2.82566191	      1.48080589	     -1.28627912	      2.51530188	    -11.36710422	     33.03516279	     26.13839078	     74.50812325	      0.97898293	     -9.74072332	     30.76855223	     24.55994019	     65.20014180
      0.05000000	     -1.88323115	      1.87734574	     -0.20427637	      0.09716582	      1.13527445	      0.10303597	      5.16171324	     -1.84574641	     -5.27839742	      3.54790126	      0.06192256	     13.23182992	      9.75617229	     -6.75365057	      5.11770988	      1.13625494	     -7.34533504	      4.40114351	      0.07681445	     10.22846234	      7.48323510	     -6.75365057	      2.94985790	      0.73207179	      0.10225869	      0.96366752	    -10.38801229	     24.41912965	     26.43545637	     87.13228092	      1.94723333	     -9.63718435	     32.27414790	     22.81472287	     69.33860446
      0.06666670	     -1.83583708	      1.99355994	     -0.29906615	      0.09865614	      1.13254148	      0.10286401	      4.81672536	     -1.91112357	     -4.77523231	      3.13899890	      0.05478587	     13.44284804	     10.46273231	     -7.22009785	      4.89745344	      1.22696339	     -7.10987263	      4.06149336	      0.07088643	     10.22279229	      7.49687544	     -7.22009785	      2.96862014	      0.79697132	     -0.04825847	      0.99786985	     -9.82363005	     21.23939959	     26.11378263	     90.98155087	      1.30653123	     -9.20824919	     28.94241761	     22.69062617	     68.66726747
      0.08333330	     -1.84171364	      2.20104764	     -0.58892078	      0.09693908	      1.13530253	      0.10291894	      4.71715084	     -2.18632525	     -5.06117298	      3.06833715	      0.05355259	     13.21047603	     10.42049384	     -7.22161034	      4.82444678	      1.56601712	     -6.96456542	      4.09643859	      0.07149634	     10.07630518	      7.60612993	     -7.22161034	      2.90178623	      0.72928255	      0.18508919	      1.16402609	     -9.88225907	     21.09452537	     26.08886458	     90.96058898	      1.26585951	     -9.15221340	     28.78932638	     22.53976616	     68.61918948
      0.10000000	     -1.68910558	      2.31151370	     -0.68391960	      0.09843585	      1.13600296	      0.10239160	      4.49814811	     -2.30341492	     -4.94210670	      2.71591864	      0.04740172	     13.19522235	     10.60701995	     -7.38144404	      4.59635462	      1.69158323	     -6.95161371	      3.73390037	      0.06516886	      9.98845783	      7.17747110	     -7.38144404	      2.70698033	      0.67267985	      0.61591063	      1.03885071	     -9.78943573	     20.60995482	     25.91016718	     87.41501442	      1.56770597	     -8.37438588	     25.82731536	     21.30307468	     65.78085359
      0.11666670	     -1.49436408	      2.34877034	     -0.76036294	      0.09935902	      1.13482495	      0.10192237	      4.11336533	     -2.46172704	     -5.26188794	      2.66075312	      0.04643890	     12.94646050	     10.85397623	     -7.40538656	      4.33030362	      1.81488047	     -6.81196286	      3.63699201	      0.06347749	      9.45920558	      7.38195089	     -7.40538656	      2.59104993	      0.74933210	      0.81578716	      1.03901801	     -9.63985497	     19.64012828	     25.46110158	     86.13352995	      1.69420418	     -7.99341816	     24.49332519	     21.01668058	     64.83195629
      0.13333330	     -1.35936854	      2.35324077	     -0.78880175	      0.09805333	      1.13422508	      0.10180421	      3.93969175	     -2.43520336	     -4.87007221	      2.69871875	      0.04710153	     12.92746979	     11.01433547	     -7.41731429	      4.19505239	      1.87785458	     -6.67645650	      3.48292411	      0.06078849	      9.28634411	      7.07144785	     -7.41731429	      2.39475322	      0.80020008	      0.96745304	      1.03721283	     -9.60057835	     19.20878760	     25.28370288	     86.39201551	      1.91144643	     -7.67093381	     23.17699005	     20.62080038	     64.22579343
      0.15000000	     -1.17392670	      2.31277468	     -0.77846031	      0.09835066	      1.13430089	      0.10208314	      3.70720519	     -2.37883077	     -4.50299402	      2.65355495	      0.04631327	     12.85090759	     11.02468623	     -7.43332161	      4.00203403	      1.81307923	     -6.54422291	      3.30324122	      0.05765244	      9.16944334	      6.87033540	     -7.43332161	      2.20243417	      0.87847755	      1.03205465	      1.11911578	     -9.60495750	     19.17824181	     25.12359400	     86.10624014	      2.04517719	     -7.44374195	     21.94964485	     20.52602138	     63.38682424
      0.16666670	     -1.00493391	      2.25757217	     -0.76782703	      0.09843937	      1.13780585	      0.10240009	      3.42196331	     -2.28403210	     -4.30951734	      2.60696574	      0.04550014	     12.74452801	     11.29755935	     -7.44747755	      3.75375223	      1.72170414	     -6.49490660	      3.13656545	      0.05474339	      8.99939266	      6.76281491	     -7.44747755	      1.99385485	      0.92617617	      1.08251870	      1.18266363	     -9.58713003	     19.40782259	     24.97260408	     84.76114075	      2.11681746	     -7.29170043	     21.23854702	     20.57550573	     62.60468857
      0.18333330	     -0.84216309	      2.26214914	     -0.81541186	      0.09790341	      1.13774285	      0.10280290	      3.26813653	     -2.28644874	     -4.25616900	      2.53452674	      0.04423584	     12.70306031	     11.36174508	     -7.44957695	      3.48800474	      1.75436065	     -6.31147850	      3.06365858	      0.05347093	      8.71894475	      6.59504026	     -7.44957695	      1.75175578	      0.94776281	      1.22110754	      1.24359797	     -9.62640099	     19.48848836	     25.01766917	     84.61629194	      2.22087446	     -7.26554625	     20.99558332	     20.64531760	     62.42806105
      0.20000000	     -0.71558687	      2.24715491	     -0.81926955	      0.09775915	      1.13588612	      0.10272737	      3.03078026	     -2.23515027	     -3.95255902	      2.41193243	      0.04209616	     12.44955640	     11.25012902	     -7.45404562	      3.25265088	      1.74247144	     -6.21849079	      3.03931115	      0.05304599	      8.36794913	      6.43424390	     -7.45404562	      1.57877892	      0.94531873	      1.30731142	      1.16712360	     -9.72862458	     19.69875426	     25.44674286	     84.07541475	      2.14033934	     -7.36889004	     20.72751882	     21.32738387	     62.15822956
